<?xml version="1.0" encoding="utf-8"?>
<!-- Generator: Adobe Illustrator 19.0.0, SVG Export Plug-In . SVG Version: 6.00 Build 0)  -->
<svg version="1.1" id="Layer_1" xmlns="http://www.w3.org/2000/svg" xmlns:xlink="http://www.w3.org/1999/xlink" x="0px" y="0px"
	 viewBox="0 0 86.8 85.9" style="enable-background:new 0 0 86.8 85.9;" xml:space="preserve">
<g>
	<path fill="#DB4863" class="st0" d="M37.6,82.5C16.9,82.5,0,65.6,0,44.9S16.9,7.3,37.6,7.3s37.6,16.9,37.6,37.6S58.3,82.5,37.6,82.5z M37.6,10.3
		C18.5,10.3,3,25.8,3,44.9s15.5,34.6,34.6,34.6S72.2,64,72.2,44.9S56.7,10.3,37.6,10.3z"/>
</g>
<g>
	<path fill="#DB4863" class="st0" d="M37.6,56.7c-6.5,0-11.8-5.3-11.8-11.8s5.3-11.8,11.8-11.8s11.8,5.3,11.8,11.8S44.1,56.7,37.6,56.7z M37.6,36.2
		c-4.8,0-8.8,3.9-8.8,8.8s3.9,8.8,8.8,8.8s8.8-3.9,8.8-8.8S42.4,36.2,37.6,36.2z"/>
</g>
<g>
	<path fill="#DB4863" class="st0" d="M37.6,50.2c-2.9,0-5.2-2.4-5.2-5.2s2.4-5.2,5.2-5.2s5.2,2.4,5.2,5.2S40.5,50.2,37.6,50.2z M37.6,42.7
		c-1.2,0-2.2,1-2.2,2.2s1,2.2,2.2,2.2s2.2-1,2.2-2.2S38.8,42.7,37.6,42.7z"/>
</g>
<g>
	<polygon fill="#DB4863" class="st0" points="77.4,73.6 74.8,72.2 83.8,54.8 83.8,0 86.8,0 86.8,55.5 	"/>
</g>
<g>
	<path fill="#DB4863" class="st0" d="M73.1,85.9c-1.1,0-2.1-0.3-3.1-0.8c-1.5-0.8-2.6-2.2-3.1-3.9c-0.5-1.7-0.3-3.4,0.5-4.9l0.8-1.5
		c0.8-1.5,2.2-2.6,3.9-3.1s3.4-0.3,4.9,0.5c1.5,0.8,2.6,2.2,3.1,3.9c0.5,1.7,0.3,3.4-0.5,4.9l-0.8,1.5c-0.8,1.5-2.2,2.6-3.9,3.1
		C74.3,85.8,73.7,85.9,73.1,85.9z M73.9,74.4c-0.3,0-0.7,0-1,0.1c-0.9,0.3-1.6,0.9-2.1,1.7L70,77.7c-0.4,0.8-0.5,1.8-0.3,2.7
		c0.3,0.9,0.9,1.6,1.7,2.1h0c0.8,0.4,1.8,0.5,2.7,0.3c0.9-0.3,1.6-0.9,2.1-1.7l0.8-1.5c0.4-0.8,0.5-1.8,0.3-2.7
		c-0.3-0.9-0.9-1.6-1.7-2.1C75,74.6,74.5,74.4,73.9,74.4z"/>
</g>
</svg>
